<?xml version="1.0" encoding="UTF-8" standalone="no"?>
<!-- Created with Inkscape (http://www.inkscape.org/) -->

<svg
   width="134.91757"
   height="136.01981"
   viewBox="0 0 35.69694 35.988574"
   version="1.1"
   id="svg1"
   xml:space="preserve"
   inkscape:version="1.4.2 (ebf0e940d0, 2025-05-08)"
   sodipodi:docname="neptune.svg"
   inkscape:export-filename="neptune.png"
   inkscape:export-xdpi="96"
   inkscape:export-ydpi="96"
   xmlns:inkscape="http://www.inkscape.org/namespaces/inkscape"
   xmlns:sodipodi="http://sodipodi.sourceforge.net/DTD/sodipodi-0.dtd"
   xmlns="http://www.w3.org/2000/svg"
   xmlns:svg="http://www.w3.org/2000/svg"><sodipodi:namedview
     id="namedview1"
     pagecolor="#ffffff"
     bordercolor="#000000"
     borderopacity="0.25"
     inkscape:showpageshadow="2"
     inkscape:pageopacity="0.0"
     inkscape:pagecheckerboard="0"
     inkscape:deskcolor="#d1d1d1"
     inkscape:document-units="px"
     inkscape:zoom="0.42360059"
     inkscape:cx="579.55538"
     inkscape:cy="639.7536"
     inkscape:window-width="2048"
     inkscape:window-height="1202"
     inkscape:window-x="0"
     inkscape:window-y="0"
     inkscape:window-maximized="1"
     inkscape:current-layer="layer1"><inkscape:page
       x="0"
       y="0"
       width="35.696941"
       height="35.988575"
       id="page2"
       margin="0"
       bleed="0" /></sodipodi:namedview><defs
     id="defs1" /><g
     inkscape:label="Layer 1"
     inkscape:groupmode="layer"
     id="layer1"
     transform="translate(-104.80806,-97.320577)"><g
       id="g4"
       transform="matrix(1.4973321,0,0,1.4973321,44.581002,-98.616464)"
       style="fill:#000000"><g
         id="g2637"
         transform="matrix(0.28869874,0,0,-0.28869874,44.123234,154.34337)"
         style="fill:#000000"><path
           d="m 0,0 h -13.51 v 51.517 c 0,16.451 13.385,29.834 29.835,29.834 16.451,0 29.835,-13.383 29.835,-29.834 V 23.735 H 32.651 v 27.782 c 0,9.001 -7.323,16.324 -16.326,16.324 C 7.323,67.841 0,60.518 0,51.517 Z"
           style="fill:#000000;fill-opacity:1;fill-rule:nonzero;stroke:none"
           id="path2639" /></g><g
         id="g2641"
         transform="matrix(0.28869874,0,0,-0.28869874,55.449954,154.89257)"
         style="fill:#000000"><path
           d="m 0,0 c -16.451,0 -29.835,13.383 -29.835,29.834 v 27.782 h 13.51 V 29.834 c 0,-9.001 7.323,-16.324 16.325,-16.324 9.002,0 16.325,7.323 16.325,16.324 v 51.517 h 13.51 V 29.834 C 29.835,13.383 16.451,0 0,0"
           style="fill:#000000;fill-opacity:1;fill-rule:nonzero;stroke:none"
           id="path2643" /></g></g></g></svg>
